<?xml version="1.0" encoding="UTF-8" standalone="no"?>
<!-- Created with Inkscape (http://www.inkscape.org/) -->

<svg
   width="64"
   height="64"
   viewBox="0 0 64 64"
   version="1.1"
   id="svg1"
   xml:space="preserve"
   inkscape:version="1.4.2 (f4327f4, 2025-05-13)"
   sodipodi:docname="sad.svg"
   xmlns:inkscape="http://www.inkscape.org/namespaces/inkscape"
   xmlns:sodipodi="http://sodipodi.sourceforge.net/DTD/sodipodi-0.dtd"
   xmlns="http://www.w3.org/2000/svg"
   xmlns:svg="http://www.w3.org/2000/svg"><sodipodi:namedview
     id="namedview1"
     pagecolor="#ffffff"
     bordercolor="#000000"
     borderopacity="0.25"
     inkscape:showpageshadow="2"
     inkscape:pageopacity="0.0"
     inkscape:pagecheckerboard="0"
     inkscape:deskcolor="#d1d1d1"
     inkscape:document-units="px"
     inkscape:zoom="16"
     inkscape:cx="45.34375"
     inkscape:cy="31.8125"
     inkscape:window-width="2560"
     inkscape:window-height="1476"
     inkscape:window-x="-12"
     inkscape:window-y="-12"
     inkscape:window-maximized="1"
     inkscape:current-layer="svg1" /><defs
     id="defs1" /><path
     style="display:inline;fill:#ffffff;fill-opacity:1;stroke:#000000;stroke-width:3.99991;stroke-linecap:round;stroke-linejoin:round;stroke-dasharray:none;stroke-opacity:1"
     d="M 4.748593,47.875356 C 2.7728011,43.279071 3.5734774,37.724142 4.4237705,33.713819 c 1.355066,-3.297608 2.4659749,-6.814907 4.2749958,-10.217326 2.0479587,-2.282402 3.7762187,-5.706112 6.6991667,-7.649575 1.658713,-1.511132 9.301017,-3.856965 12.266222,-4.235452 3.995107,-0.642425 8.756262,0.07196 12.5906,1.012536 2.931317,1.016595 6.816713,2.774336 9.387185,4.49449 3.458156,2.221604 6.352898,6.889093 7.97157,9.923528 0.79286,2.66542 2.9108,11.120763 2.880746,12.89353 0.147361,2.649641 0.608938,5.654338 -1.245834,7.127272 -1.908063,1.464931 -9.931456,3.611835 -12.508605,3.875443 C 42.453748,51.442426 35.620328,51.565238 31.324091,51.83216 27.102546,51.762772 16.159827,51.46133 12.587039,50.944173 10.168901,50.629997 6.4554733,50.362971 4.748593,47.875356 Z"
     id="path1"
     sodipodi:nodetypes="cccccccccccccc" /><path
     style="fill:none;stroke:#000000;stroke-width:3.99991;stroke-linecap:round;stroke-linejoin:round;stroke-dasharray:none;stroke-opacity:1"
     d="m 11.936001,41.563003 c 1.690013,-2.236698 3.781345,-3.496464 6.183594,-4.773788 2.357989,-1.219774 5.458386,-1.727953 7.69817,-1.950087 2.224449,-0.205778 8.428876,0.03231 10.589571,0.40215 2.661664,0.547653 5.082149,2.021412 6.940758,3.027393 1.020092,0.756951 4.034614,2.935814 5.274963,4.23183"
     id="path2"
     sodipodi:nodetypes="cccccc" /><ellipse
     style="fill:#000000;fill-opacity:1;stroke:none;stroke-width:3.99991;stroke-linecap:round;stroke-linejoin:round;stroke-dasharray:none;stroke-opacity:1"
     id="path3"
     cx="21.092134"
     cy="25.782116"
     rx="2.4999683"
     ry="2.499943" /><ellipse
     style="fill:#000000;fill-opacity:1;stroke:none;stroke-width:3.99991;stroke-linecap:round;stroke-linejoin:round;stroke-dasharray:none;stroke-opacity:1"
     id="path3-1"
     cx="38.873158"
     cy="26.500849"
     rx="2.4999683"
     ry="2.499943" /></svg>
