<?xml version="1.0" encoding="UTF-8" standalone="no"?>
<!-- Created with Inkscape (http://www.inkscape.org/) -->

<svg
   width="64"
   height="64"
   viewBox="0 0 64 64"
   version="1.1"
   id="svg1"
   xml:space="preserve"
   inkscape:version="1.4.2 (f4327f4, 2025-05-13)"
   sodipodi:docname="smiley.svg"
   xmlns:inkscape="http://www.inkscape.org/namespaces/inkscape"
   xmlns:sodipodi="http://sodipodi.sourceforge.net/DTD/sodipodi-0.dtd"
   xmlns="http://www.w3.org/2000/svg"
   xmlns:svg="http://www.w3.org/2000/svg"><sodipodi:namedview
     id="namedview1"
     pagecolor="#ffffff"
     bordercolor="#000000"
     borderopacity="0.25"
     inkscape:showpageshadow="2"
     inkscape:pageopacity="0.0"
     inkscape:pagecheckerboard="false"
     inkscape:deskcolor="#d1d1d1"
     inkscape:document-units="px"
     inkscape:zoom="4.1763187"
     inkscape:cx="106.31373"
     inkscape:cy="77.340841"
     inkscape:window-width="2560"
     inkscape:window-height="1476"
     inkscape:window-x="-12"
     inkscape:window-y="-12"
     inkscape:window-maximized="1"
     inkscape:current-layer="svg1" /><defs
     id="defs1"><inkscape:path-effect
       effect="spiro"
       id="path-effect49"
       is_visible="true"
       lpeversion="1" /><inkscape:path-effect
       effect="simplify"
       id="path-effect48"
       is_visible="true"
       lpeversion="1.3"
       threshold="24.390244"
       steps="1"
       smooth_angles="360"
       helper_size="0"
       simplify_individual_paths="false"
       simplify_just_coalesce="false" /><inkscape:path-effect
       effect="spiro"
       id="path-effect45"
       is_visible="true"
       lpeversion="1" /><inkscape:path-effect
       effect="simplify"
       id="path-effect44"
       is_visible="true"
       lpeversion="1.3"
       threshold="24.390244"
       steps="1"
       smooth_angles="360"
       helper_size="0"
       simplify_individual_paths="false"
       simplify_just_coalesce="false" /><inkscape:path-effect
       effect="spiro"
       id="path-effect39"
       is_visible="true"
       lpeversion="1" /><inkscape:path-effect
       effect="simplify"
       id="path-effect38"
       is_visible="true"
       lpeversion="1.3"
       threshold="24.390244"
       steps="1"
       smooth_angles="360"
       helper_size="0"
       simplify_individual_paths="false"
       simplify_just_coalesce="false" /><inkscape:path-effect
       effect="spiro"
       id="path-effect36"
       is_visible="true"
       lpeversion="1" /><inkscape:path-effect
       effect="simplify"
       id="path-effect35"
       is_visible="true"
       lpeversion="1.3"
       threshold="24.390244"
       steps="1"
       smooth_angles="360"
       helper_size="0"
       simplify_individual_paths="false"
       simplify_just_coalesce="false" /><inkscape:path-effect
       effect="spiro"
       id="path-effect33"
       is_visible="true"
       lpeversion="1" /><inkscape:path-effect
       effect="simplify"
       id="path-effect32"
       is_visible="true"
       lpeversion="1.3"
       threshold="24.390244"
       steps="1"
       smooth_angles="360"
       helper_size="0"
       simplify_individual_paths="false"
       simplify_just_coalesce="false" /><inkscape:path-effect
       effect="spiro"
       id="path-effect31"
       is_visible="true"
       lpeversion="1" /><inkscape:path-effect
       effect="simplify"
       id="path-effect30"
       is_visible="true"
       lpeversion="1.3"
       threshold="24.390244"
       steps="1"
       smooth_angles="360"
       helper_size="0"
       simplify_individual_paths="false"
       simplify_just_coalesce="false" /></defs><path
     style="display:inline;fill:#ffffff;fill-opacity:1;stroke:#000000;stroke-width:4;stroke-linecap:round;stroke-linejoin:round;stroke-dasharray:none;stroke-opacity:1"
     d="m 7.6260364,17.348816 c 0.93925,-1.55503 2.19542,-2.91525 3.6678246,-3.971632 0.733601,-0.526323 1.517658,-0.976506 2.282377,-1.455876 2.063743,-1.29367 3.988949,-2.8014906 6.056404,-4.0891436 2.481532,-1.545549 5.189228,-2.776113 8.058656,-3.311515 4.36211,-0.813919 8.86957,0.01158 13.12035,1.28968 4.67284,1.405007 9.23777,3.392078 13.05175,6.4508246 1.47364,1.181834 2.83478,2.527413 3.88361,4.102836 0.94795,1.42389 1.63349,3.035512 1.91115,4.726502 0.21021,1.280247 0.18623,2.58609 0.17204,3.883617 -0.0345,3.153111 -0.008,6.31491 -0.35759,9.448538 -0.49238,4.41511 -1.72624,8.719515 -3.28594,12.87584 -0.91607,2.441158 -1.98801,4.903222 -3.82114,6.748738 -2.09343,2.107563 -4.97842,3.207463 -7.83812,3.980753 -3.60326,0.97436 -7.33486,1.52592 -11.06434,1.4161 -3.08905,-0.091 -6.15422,-0.63428 -9.137458,-1.44604 -3.103304,-0.84444 -6.170223,-2.00282 -8.767948,-3.908636 -2.659122,-1.950861 -4.739865,-4.631329 -6.2579336,-7.569525 -0.755531,-1.462318 -1.378066,-2.991296 -1.925659,-4.544614 -0.9315,-2.642314 -1.64949,-5.36564 -2.048095,-8.140466 -0.45222,-3.148066 -0.490409,-6.361378 -0.03933,-9.50961 0.192198,-1.341425 0.473739,-2.673642 0.918718,-3.952822 0.366704,-1.054166 0.843744,-2.069423 1.420676,-3.023549 z"
     id="path44"
     sodipodi:nodetypes="ccccccccccccccccccc" /><path
     style="display:inline;fill:none;fill-opacity:1;stroke:#000000;stroke-width:4;stroke-linecap:round;stroke-linejoin:round;stroke-dasharray:none;stroke-opacity:1"
     d="m 18.136961,36.81178 c 2.695019,0.80991 5.488884,1.286114 8.298607,1.41447 2.22186,0.101505 4.45064,-0.01384 6.65927,-0.277754 0.83951,-0.100312 1.67736,-0.222223 2.50307,-0.404804 2.62754,-0.581003 5.08274,-1.764063 7.45988,-3.031632 1.72956,-0.922257 3.44927,-1.906426 4.89548,-3.23378 0.54041,-0.495995 1.03893,-1.03674 1.51254,-1.59764 0.82133,-0.972705 1.56951,-2.007948 2.23603,-3.093958"
     id="path48"
     sodipodi:nodetypes="cccccc" /><circle
     style="display:inline;fill:#000000;fill-opacity:1;stroke:none;stroke-width:4.58709;stroke-linecap:round;stroke-linejoin:round;stroke-dasharray:none;stroke-opacity:1"
     id="path49"
     cx="17.265684"
     cy="24.123209"
     r="2.5" /><circle
     style="display:inline;fill:#000000;fill-opacity:1;stroke:none;stroke-width:4.58709;stroke-linecap:round;stroke-linejoin:round;stroke-dasharray:none;stroke-opacity:1"
     id="path49-9"
     cx="45.727001"
     cy="18.972258"
     r="2.5" /></svg>
