<?xml version="1.0" encoding="UTF-8" standalone="no"?>
<!-- Created with Inkscape (http://www.inkscape.org/) -->

<svg
   width="64"
   height="64"
   viewBox="0 0 64 64"
   version="1.1"
   id="svg1"
   xml:space="preserve"
   inkscape:version="1.4.2 (f4327f4, 2025-05-13)"
   sodipodi:docname="triangle.svg"
   xmlns:inkscape="http://www.inkscape.org/namespaces/inkscape"
   xmlns:sodipodi="http://sodipodi.sourceforge.net/DTD/sodipodi-0.dtd"
   xmlns="http://www.w3.org/2000/svg"
   xmlns:svg="http://www.w3.org/2000/svg"><sodipodi:namedview
     id="namedview1"
     pagecolor="#ffffff"
     bordercolor="#000000"
     borderopacity="0.25"
     inkscape:showpageshadow="2"
     inkscape:pageopacity="0.0"
     inkscape:pagecheckerboard="0"
     inkscape:deskcolor="#d1d1d1"
     inkscape:document-units="px"
     inkscape:zoom="16"
     inkscape:cx="20.46875"
     inkscape:cy="34.25"
     inkscape:window-width="2560"
     inkscape:window-height="1476"
     inkscape:window-x="-12"
     inkscape:window-y="-12"
     inkscape:window-maximized="1"
     inkscape:current-layer="svg1" /><defs
     id="defs1" /><path
     style="fill:none;fill-opacity:1;stroke:#000000;stroke-width:3.986;stroke-linecap:round;stroke-linejoin:round;stroke-dasharray:none;stroke-opacity:1"
     d="M 5.6037414,58.978888 C 5.2910531,54.762 6.5859746,51.253325 7.0053697,47.239251 7.171676,42.398223 8.6355085,38.286221 9.4959075,33.062467 9.7233579,27.933107 10.772153,23.568796 11.985665,18.566002 12.949596,14.477703 14.572721,7.9870679 15.514581,4.4372414 c 3.842411,2.3475261 8.700888,6.0895586 12.62826,8.9939776 5.339213,4.309833 10.339152,8.962069 14.686336,12.221802 2.550349,1.771745 6.398441,3.531785 9.279926,6.924991 1.538583,1.731075 5.177217,4.011392 7.898587,6.987526 -4.1876,1.319625 -13.333886,5.268863 -17.163907,6.337302 -5.989599,2.942279 -11.700092,4.397099 -18.048461,6.263453 -4.767201,2.279603 -5.896081,3.802926 -11.136691,4.731264 -1.198134,0.536608 -6.3902616,1.65072 -8.0548896,2.081331 z"
     id="path1"
     sodipodi:nodetypes="ccccccccccccc" /><ellipse
     style="fill:#000000;fill-opacity:1;stroke:none;stroke-width:3.76678;stroke-dasharray:none;stroke-opacity:1"
     id="path2"
     cx="20.333733"
     cy="30.579296"
     rx="2.4913301"
     ry="2.4911926" /><ellipse
     style="fill:#000000;fill-opacity:1;stroke:none;stroke-width:6.35411;stroke-dasharray:none;stroke-opacity:1"
     id="path2-7"
     ry="4.1104746"
     rx="5.4497762"
     cy="42.805115"
     cx="18.601513"
     transform="matrix(0.9848094,-0.17363885,0.17365749,0.98480611,0,0)" /><ellipse
     style="fill:#000000;fill-opacity:1;stroke:none;stroke-width:3.76678;stroke-dasharray:none;stroke-opacity:1"
     id="path2-1"
     cx="31.326727"
     cy="30.641573"
     rx="2.4913301"
     ry="2.4911926" /></svg>
